<svg version="1.1" viewBox="0.0 0.0 336.0 336.0" fill="none" stroke="none" stroke-linecap="square" stroke-miterlimit="10" xmlns:xlink="http://www.w3.org/1999/xlink" xmlns="http://www.w3.org/2000/svg"><clipPath id="p1.0"><path d="m0 0l336.0 0l0 336.0l-336.0 0l0 -336.0z" clip-rule="nonzero"/></clipPath><g clip-path="url(#p1.0)"><path fill="#ffffff" d="m0 0l336.0 0l0 336.0l-336.0 0z" fill-rule="evenodd"/><path fill="#ffc857" d="m49.291817 99.464615l118.28997 -69.48528l120.14441 69.36436l-1.0170593 137.19179l-118.28996 69.485275l-120.144424 -69.36435z" fill-rule="evenodd"/><path stroke="#000000" stroke-width="7.333333333333333" stroke-miterlimit="800.0" stroke-linecap="butt" d="m49.291817 99.464615l118.28997 -69.48528l120.14441 69.36436l-1.0170593 137.19179l-118.28996 69.485275l-120.144424 -69.36435z" fill-rule="evenodd"/><path fill="#000000" fill-opacity="0.0" d="m62.755905 67.51706l210.70866 0l0 200.97638l-210.70866 0z" fill-rule="evenodd"/><path fill="#fefae0" d="m227.33397 169.61775q0 23.765625 -13.859375 40.328125l11.875 12.234375l-15.125 14.9375l-13.5 -13.859375q-13.140625 6.84375 -29.6875 6.84375q-28.625 0 -43.937508 -17.8125q-15.296875 -17.828125 -15.296875 -42.296875q0 -25.5625 16.203125 -43.015625q16.203133 -17.46875 43.750008 -17.46875q28.078125 0 43.828125 17.734375q15.75 17.71875 15.75 42.375zm-26.109375 0.734375q0 -18.734375 -8.640625 -29.171875q-8.640625 -10.4375 -25.015625 -10.4375q-17.453125 0 -25.5625 11.078125q-8.09375 11.0625 -8.09375 27.625q0 16.015625 7.921875 27.71875q7.921875 11.703125 26.453125 11.703125q7.015625 0 12.609375 -1.984375l-17.640625 -18.171875l15.109375 -14.953125l18.359375 18.90625q4.5 -9.0 4.5 -22.3125z" fill-rule="nonzero"/><path fill="#000000" fill-opacity="0.0" d="m188.2262 281.74814l-124.91339 -71.81102l-13.732281 23.811035l124.91338 71.81102z" fill-rule="evenodd"/><path fill="#8f250c" d="m67.70276 237.22993q-1.937088 -1.1136017 -2.2222595 -2.6833344q-0.2638092 -1.5754852 1.3130264 -4.309616q1.5846329 -2.7476807 3.1938553 -3.1923065q1.6305695 -0.45037842 4.1636887 1.0058746q1.1378708 0.6541443 2.8302155 1.8793793l0.64608 0.44351196l-7.5563126 13.102219l-2.4789352 -1.4251099l2.3964767 -4.1553497q-1.4730759 -0.1980133 -2.2858353 -0.66526794zm5.214943 -7.040802q-1.2326889 -0.7086487 -2.0408554 -0.30815125q-0.80036163 0.3869629 -1.6902618 1.9299927q-1.44413 2.5040436 0.12722015 3.4073792q0.73148346 0.42053223 1.5316238 0.6281891l0.27505493 0.08602905l2.8882523 -5.008072q-0.64401245 -0.4783783 -1.0910339 -0.7353668zm12.462769 4.605423l2.4789276 1.4250946l-5.331566 9.244659l-2.4518433 -1.4095306l0.29663086 -0.51434326q-1.7625885 -0.04005432 -2.7379074 -0.6007538q-1.9235382 -1.1058197 -1.9784241 -2.543167q-0.047073364 -1.4508667 1.3892517 -3.9413757l2.7945862 -4.8456573l2.4789276 1.4251099l-2.8180008 4.886261q-0.788414 1.3670654 -0.86050415 1.9924774q-0.07209015 0.625412 0.78131104 1.1160126q0.812767 0.46725464 1.7003784 0.6170654l0.26931 0.064712524l3.988922 -6.916565zm-0.55187225 11.992432l5.3315735 -9.244644l2.4789276 1.4250946l-5.331566 9.244644l-2.4789352 -1.4250946zm6.010704 -10.422226l1.4519348 -2.5175781l2.4789276 1.4251099l-1.4519348 2.5175781l-2.4789276 -1.4251099zm7.6705627 5.689331q0.9617691 0.5529175 2.2801056 1.7073059l0.43875122 0.39642334l-1.1996155 1.9236908q-1.3771057 -0.9899292 -2.0815048 -1.3948822q-1.2733307 -0.73202515 -2.0055008 -0.4320221q-0.7186279 0.3078003 -1.5929108 1.8237457q-0.87428284 1.5159607 -0.7957611 2.3180695q0.09207153 0.809906 1.378952 1.5497131l2.2396927 1.0893097l-1.0719604 2.0151062q-2.1962967 -0.75798035 -3.2257996 -1.349823q-2.0590057 -1.1837006 -2.289528 -2.848175q-0.23052216 -1.6644745 1.23703 -4.2091217q1.4753494 -2.5581818 3.0522003 -3.1656036q1.5768433 -0.6074219 3.635849 0.5762634zm1.8149567 13.641464l-2.4789352 -1.4251099l7.462639 -12.939804l2.4789276 1.4251099l-4.246521 7.3632355l1.0361633 0.3613739l3.8426971 -2.4408112l2.7769394 1.5964203l-4.926834 3.00708l-0.26927185 6.315445l-2.804039 -1.6119995l0.22061157 -4.667282l-1.1096268 -0.42164612l-1.9827499 3.4379883zm15.78791 -3.5218048q0.96177673 0.5529022 2.2801056 1.7073059l0.43875885 0.39642334l-1.1996155 1.9236908q-1.3771057 -0.98994446 -2.0815048 -1.3948822q-1.2733307 -0.73202515 -2.0055008 -0.4320221q-0.7186279 0.30778503 -1.5929108 1.823761q-0.87428284 1.5159607 -0.7957611 2.3180542q0.09207153 0.809906 1.378952 1.5497131l2.2396927 1.0892944l-1.0719604 2.0151062q-2.1962967 -0.7579651 -3.2257996 -1.349823q-2.0590057 -1.1836853 -2.289528 -2.848175q-0.23052216 -1.6644592 1.23703 -4.2091064q1.4753494 -2.558197 3.0521927 -3.165619q1.5768509 -0.6074219 3.635849 0.5762787zm1.8149643 13.641464l-2.4789352 -1.4251099l7.462639 -12.939804l2.4789276 1.4251099l-2.3886642 4.1418q1.6558304 0.06881714 2.6717834 0.65286255q1.8422699 1.059082 1.9143677 2.5603943q0.07991028 1.487793 -1.231514 3.7617188l-2.88826 5.008087l-2.4789352 -1.4251099l2.8570328 -4.9539185q0.6713257 -1.1640625 0.7069092 -1.8825378q0.05693817 -0.72424316 -0.76937103 -1.1992798q-0.7179489 -0.41271973 -1.5743332 -0.6166687l-0.27711487 -0.05117798l-4.004532 6.943634zm18.486214 2.1566772l-2.2169342 3.8440247q-0.21696472 0.47003174 -0.21008301 0.7082825q0.020446777 0.24606323 0.31225586 0.52194214l-1.1371613 1.8154297q-0.9482269 -0.5451355 -1.4391022 -1.0075684q-0.48513794 -0.44110107 -0.835495 -1.1471558q-1.6944122 -0.12701416 -3.089653 -0.92910767q-2.858223 -1.643158 -1.1174622 -4.66156q0.8586731 -1.4888916 1.9956131 -1.6463013q1.1583099 -0.16314697 2.8598328 0.6708374l2.0771332 0.9958801l0.33566284 -0.58203125q0.3278656 -0.56848145 0.17402649 -0.9272766q-0.1324768 -0.36450195 -0.701416 -0.69158936l-3.5671997 -1.852478l0.923645 -1.7579346q2.2899628 0.59555054 4.064499 1.6157227q1.7880859 1.0279236 2.1444244 2.22406q0.36413574 1.1825562 -0.57258606 2.8068237zm-5.5715485 0.059143066q-1.0763397 -0.51065063 -1.6696014 0.5180359q-0.5854645 1.0151672 0.3221283 1.5369263q0.7043915 0.40493774 1.6634064 0.6498718l0.3235016 0.09585571l1.139679 -1.9761658l-1.7791138 -0.8245239zm4.280243 7.6693115l5.3315735 -9.244659l2.4518433 1.4095154l-0.56985474 0.98809814q2.088623 -0.024841309 3.6613464 0.50079346l-1.4363251 2.490509q-1.6909637 -0.5395508 -2.9484558 -0.82992554l-0.44380188 -0.07489014l-3.5673828 6.1856384l-2.4789429 -1.4250793zm16.112701 -0.23516846l-2.2757416 -1.3082886l-2.1857147 3.789917q-0.3200531 0.55493164 -0.42565918 0.80062866q-0.10562134 0.2456665 -0.0309906 0.52285767q0.08242798 0.26367188 0.4481659 0.473938l1.4322052 0.7692871l-1.031311 2.0384521q-1.3888245 -0.43795776 -2.039032 -0.81173706q-1.6661682 -0.95788574 -1.846405 -2.052765q-0.18023682 -1.0948792 0.9828644 -3.1116333l2.2169342 -3.8440552l-1.097229 -0.6307678l1.2177582 -2.1115112l1.097229 0.6307678l1.475357 -2.5581665l2.4789276 1.4251099l-1.475357 2.5581665l2.2757416 1.3082886l-1.2177429 2.1115112zm-2.6256256 7.988678l1.7719879 -3.0725098l2.668579 1.5341187l-1.7719879 3.0725403l-2.668579 -1.5341492zm4.855484 2.7913513l5.331558 -9.244629l2.4789429 1.4251099l-5.3315735 9.244629l-2.4789276 -1.4251099zm6.0106964 -10.422211l1.4519348 -2.5175781l2.4789276 1.4251099l-1.4519348 2.5175781l-2.4789276 -1.4251099zm3.9701996 5.256195q1.722641 -0.7038269 4.011917 0.61224365q2.2892914 1.3160706 2.530838 3.149109q0.26289368 1.8272705 -1.0563354 4.114746q-2.8023987 4.859192 -7.0558624 2.4139404q-4.2534637 -2.445282 -1.4510803 -7.304474q1.3192291 -2.2874756 3.020523 -2.9855652zm-1.331604 6.750061q-0.0032043457 0.8812866 0.97210693 1.4419861q0.9753113 0.56069946 1.7371063 0.11550903q0.7695923 -0.45870972 1.5892334 -1.8799133q0.8196411 -1.4212341 0.8072357 -2.2754517q-0.0045928955 -0.8677368 -0.9799042 -1.4284363q-0.97532654 -0.56069946 -1.7293091 -0.12902832q-0.74617004 0.41809082 -1.5658112 1.839325q-0.8196411 1.4212036 -0.83065796 2.3160095z" fill-rule="nonzero"/><path fill="#000000" fill-opacity="0.0" d="m174.297 28.548557l-124.66141 72.09448l13.700787 23.779526l124.661415 -72.09448z" fill-rule="evenodd"/><path fill="#8f250c" d="m78.592125 108.677925q-1.9342117 1.1185989 -3.4353561 0.5788574q-1.4954224 -0.5610962 -3.071106 -3.295906q-1.5834808 -2.7483444 -1.1618652 -4.3639526q0.42733765 -1.6369781 2.9566956 -3.099762q1.1361771 -0.657074 3.0443344 -1.5079117l0.70749664 -0.33695984l7.5507965 13.105408l-2.4752426 1.431488l-2.3947296 -4.1563644q-0.9094696 1.1757584 -1.7210236 1.6451035zm-3.4791718 -8.0416565q-1.2308578 0.71183777 -1.2892685 1.6120071q-0.066215515 0.8866272 0.8230362 2.4300385q1.4430771 2.5046463 3.012085 1.5972519q0.7304001 -0.42240906 1.3110199 -1.0108871l0.21226501 -0.19495392l-2.8861542 -5.0093q-0.7366257 0.31770325 -1.1829834 0.5758438zm10.229774 -8.479172l2.4752426 -1.4314957l5.3276825 9.246895l-2.4481964 1.4158478l-0.29641724 -0.51447296q-0.9178467 1.5055008 -1.891716 2.0687103q-1.9206848 1.1107788 -3.191887 0.43805695q-1.279007 -0.6862564 -2.7142792 -3.1773682l-2.7925491 -4.8468323l2.4752502 -1.431488l2.8159485 4.887451q0.7878418 1.3674011 1.2928696 1.7431717q0.5050354 0.37577057 1.3571701 -0.11703491q0.81155396 -0.4693451 1.3859482 -1.1625214l0.19094086 -0.20067596l-3.9860077 -6.9182434zm10.100273 6.486786l-5.327675 -9.246887l2.4752502 -1.4314957l5.327675 9.246895l-2.4752502 1.431488zm-6.0063095 -10.424751l-1.450882 -2.5181885l2.4752502 -1.431488l1.4508743 2.5181808l-2.4752426 1.4314957zm8.766403 -3.7882767q0.9603424 -0.5553818 2.6198044 -1.1179962l0.5628662 -0.1811142l1.0634308 2.0022125q-1.546608 0.69589233 -2.2499619 1.1026535q-1.2714386 0.73529816 -1.3787231 1.5193405q-0.09376526 0.7762146 0.77988434 2.2925415q0.87364197 1.5163345 1.6070404 1.8502808q0.7469177 0.32613373 2.0318832 -0.4169922l2.064827 -1.3926773l1.2064896 1.9375305q-1.7563782 1.521141 -2.7843552 2.1156464q-2.0559387 1.1889954 -3.6116867 0.55448914q-1.555748 -0.63451385 -3.0222244 -3.179779q-1.4742813 -2.5587997 -1.2097473 -4.2279663q0.26452637 -1.6691666 2.3204727 -2.8581696zm12.713104 5.264534l-2.4752426 1.4314957l-7.457199 -12.942947l2.4752502 -1.431488l4.2434235 7.3650208l0.8318863 -0.715744l-0.18650055 -4.5489883l2.7728195 -1.6035843l0.13323975 5.77108l5.3297043 3.397583l-2.7998734 1.6192322l-3.927971 -2.5296173l-0.9208374 0.7491455l1.9813004 3.4388123zm9.091682 -17.874725q0.9603424 -0.5553894 2.6198044 -1.1179962l0.5628662 -0.18112183l1.0634232 2.0022202q-1.546608 0.6958847 -2.2499542 1.1026459q-1.2714386 0.7353058 -1.3787231 1.5193405q-0.09376526 0.7762222 0.7798767 2.2925491q0.8736496 1.5163269 1.607048 1.8502808q0.7469177 0.3261261 2.0318832 -0.4169922l2.0648193 -1.3926849l1.2064896 1.9375305q-1.7563705 1.5211487 -2.7843475 2.1156464q-2.0559464 1.1889954 -3.6116867 0.55448914q-1.555748 -0.6345062 -3.022232 -3.1797714q-1.4742737 -2.5588074 -1.2097473 -4.227974q0.264534 -1.6691666 2.3204803 -2.858162zm12.713112 5.264534l-2.4752502 1.431488l-7.457199 -12.94294l2.4752502 -1.4314957l2.3869247 4.14283q0.88921356 -1.3986969 1.9036636 -1.9853745q1.8395386 -1.0638428 3.1747131 -0.37397766q1.3273773 0.67633057 2.637848 2.950821l2.8861542 5.0093l-2.4752502 1.4314957l-2.85495 -4.955147q-0.6708374 -1.1643219 -1.2746887 -1.5551376q-0.59814453 -0.41217804 -1.4232178 0.06498718q-0.7168884 0.41458893 -1.3224792 1.0536118l-0.18313599 0.21421051l4.0016174 6.9453278zm11.129135 -14.919636l2.2153168 3.8449745q0.2979889 0.42330933 0.5075989 0.53673553q0.22314453 0.10559845 0.60809326 -0.008728027l1.0010223 1.8939056q-0.9468231 0.54756165 -1.5929108 0.740715q-0.6247711 0.1988678 -1.4112701 0.14833069q-0.95892334 1.4029083 -2.3520966 2.2086105q-2.8539734 1.6505127 -4.59346 -1.3685989q-0.8580475 -1.4892578 -0.42456055 -2.5521927q0.43920898 -1.0842972 2.013443 -2.1391068l1.9025116 -1.2988129l-0.3354187 -0.58216095q-0.32762146 -0.5686264 -0.71513367 -0.61525726q-0.38180542 -0.067993164 -0.94989014 0.26054764l-3.3903656 2.1592674l-1.0582886 -1.680294q1.6627808 -1.683609 3.4346771 -2.7083397q1.7854156 -1.0325508 2.9989471 -0.7416229q1.2057343 0.27738953 2.1417847 1.9020271zm-2.7406006 4.851963q-0.98117065 0.67572784 -0.38833618 1.7046661q0.58503723 1.0153961 1.491272 0.49129486q0.7033539 -0.40676117 1.3958282 -1.1140823l0.2450409 -0.23195648l-1.1388702 -1.9766464l-1.6049347 1.1267242zm8.780823 0.138237l-5.327667 -9.246891l2.4481964 -1.4158478l0.5694275 0.9883194q1.0250549 -1.820198 2.2679443 -2.9180336l1.4352722 2.491108q-1.3141632 1.1932106 -2.1955109 2.1361046l-0.28720093 0.34659195l3.5647888 6.1871605l-2.4752502 1.431488zm7.8702393 -14.06377l-2.2723694 1.3141556l2.1841278 3.790821q0.31980896 0.5550842 0.47947693 0.7695961q0.15965271 0.21451187 0.43688965 0.28882217q0.26945496 0.060775757 0.63464355 -0.15042877l1.3833008 -0.85414124l1.2470703 1.9140625q-1.0748596 0.9826088 -1.7241058 1.3580818q-1.663681 0.9621506 -2.7013702 0.5695305q-1.0376892 -0.3926201 -2.1999512 -2.4098778l-2.2153168 -3.8449745l-1.0956116 0.6336098l-1.2168579 -2.1120262l1.0955963 -0.6336098l-1.4742737 -2.5588036l2.4752502 -1.4314919l1.4742737 2.5588036l2.2723541 -1.3141594l1.2168732 2.11203zm8.3524475 -4.559662q-2.4710236 1.0319519 -3.3907928 1.5638733q-0.90623474 0.52409744 -1.0753479 0.8565483q-0.16339111 0.31108856 0.047225952 0.6766319q0.20280457 0.352005 0.6402893 0.2975464q0.4432068 -0.07581711 2.0870667 -0.66550446q1.6360626 -0.6032257 2.6092682 -0.35381317q0.9867401 0.24158859 1.7745819 1.6089897q1.7238922 2.9920425 -1.9957428 5.1431885q-1.2173309 0.7040138 -3.1358643 1.3803482l-0.657547 0.23587418l-1.1123047 -2.1183472q2.457489 -1.024128 3.3502045 -1.5404015q0.89271545 -0.5162773 1.1159363 -0.8800163q0.22320557 -0.363739 0.020401001 -0.715744q-0.20280457 -0.352005 -0.64808655 -0.31108856q-0.43955994 0.019557953 -2.0059204 0.61857224q-1.5606232 0.577652 -2.5915985 0.41579056q-1.0387573 -0.17539978 -1.8812103 -1.6375732q-0.850235 -1.4757118 -0.27835083 -2.7991905q0.5641022 -1.337017 2.1331177 -2.2444115q1.082077 -0.62578964 3.1649933 -1.3610916l0.6788635 -0.23015976l1.1508179 2.0599785z" fill-rule="nonzero"/><path fill="#000000" fill-opacity="0.0" d="m286.48514 239.9838l-0.2204895 -143.9685l-27.46457 0l0.2204895 143.9685z" fill-rule="evenodd"/><path fill="#8f250c" d="m264.83594 117.93863q-0.0034179688 -2.2343674 1.2137451 -3.2656174q1.2328186 -1.015625 4.3890686 -1.015625q3.1719055 0 4.3611755 1.171875q1.204956 1.1875 1.2094421 4.1093674q0.0019836426 1.3125 -0.21356201 3.390625l-0.061309814 0.7812424l-15.1250305 0l-0.0043640137 -2.8593674l4.796875 0q-0.5646057 -1.375 -0.56604004 -2.3125zm8.704681 1.0q-0.0021972656 -1.421875 -0.7529602 -1.921875q-0.73513794 -0.5 -2.516388 -0.5q-2.890625 0 -2.887848 1.8125q0.0012817383 0.84375 0.22125244 1.640625l0.062927246 0.28125l5.78125 0q0.0925293 -0.796875 0.09176636 -1.3125zm2.2388 13.096832l0.0043640137 2.859375l-10.671875 0l-0.004333496 -2.828125l0.59375 0q-0.8461304 -1.546875 -0.84783936 -2.671875q-0.0033874512 -2.2187424 1.2141724 -2.9843674q1.2332153 -0.765625 4.1082153 -0.765625l5.59375 0l0.0043945312 2.8593674l-5.6406555 0q-1.578125 0 -2.1558533 0.25q-0.5777588 0.25 -0.5762329 1.234375q0.0014343262 0.9375 0.31521606 1.78125l0.078552246 0.265625l7.984375 0zm-10.663452 5.5132446l10.671875 0l0.0043945312 2.8593597l-10.671875 0l-0.0043945312 -2.8593597zm12.0312805 0l2.90625 0l0.0043640137 2.8593597l-2.90625 0l-0.0043640137 -2.8593597zm-1.0948486 9.487045q0.0016784668 1.109375 -0.33944702 2.828125l-0.12411499 0.578125l-2.265747 -0.078125q0.16931152 -1.6875 0.1680603 -2.5q-0.0022583008 -1.46875 -0.6279907 -1.953125q-0.6257324 -0.46875 -2.3757324 -0.46875q-1.75 0 -2.4055176 0.46875q-0.6555176 0.484375 -0.65322876 1.96875l0.17565918 2.484375l-2.281128 0.078125q-0.440979 -2.28125 -0.44281006 -3.46875q-0.0036315918 -2.375 1.3229065 -3.40625q1.3265381 -1.03125 4.2640686 -1.03125q2.953125 0 4.2672424 1.0625q1.3141174 1.0625 1.3177795 3.4375zm-10.909058 8.38736l-0.0043640137 -2.859375l14.9375 0l0.0043945312 2.859375l-8.5000305 0l0.20477295 1.078125l4.034485 2.109375l0.00491333 3.203125l-5.066742 -2.765625l-5.604889 2.921875l-0.0049743652 -3.234375l4.1529846 -2.140625l-0.18930054 -1.171875l-3.96875 0zm10.9401245 11.917007q0.0017089844 1.109375 -0.3394165 2.828125l-0.12411499 0.578125l-2.265747 -0.078125q0.16931152 -1.6875 0.1680603 -2.5q-0.0022583008 -1.46875 -0.6279907 -1.953125q-0.6257324 -0.46875 -2.3757324 -0.46875q-1.75 0 -2.4055176 0.46875q-0.6555176 0.484375 -0.6532593 1.96875l0.1756897 2.484375l-2.281128 0.078125q-0.44100952 -2.28125 -0.44281006 -3.46875q-0.0036315918 -2.3749847 1.3229065 -3.4062347q1.3265381 -1.03125 4.264038 -1.03125q2.9531555 0 4.267273 1.0625q1.3141174 1.0625 1.317749 3.4374847zm-10.909027 8.387375l-0.0043945312 -2.859375l14.9375305 0l0.0043640137 2.859375l-4.78125 0q0.7678833 1.46875 0.76968384 2.6406097q0.0032348633 2.125 -1.2611389 2.9375q-1.2487488 0.8125 -3.8737488 0.8125l-5.78125 0l-0.0043945312 -2.859375l5.71875 0q1.34375 0 1.9838867 -0.328125q0.6557617 -0.3125 0.6542969 -1.2656097q-0.0012512207 -0.828125 -0.25253296 -1.671875l-0.094177246 -0.265625l-8.015625 0zm7.369934 17.09134l-4.4375 0q-0.51556396 0.046875 -0.71850586 0.171875q-0.20291138 0.140625 -0.29605103 0.53125l-2.140747 -0.078125q-0.0016784668 -1.09375 0.15356445 -1.75q0.13964844 -0.64060974 0.57614136 -1.2968597q-0.73672485 -1.53125 -0.7391968 -3.140625q-0.0050354004 -3.296875 3.4793396 -3.296875q1.71875 0 2.4232788 0.90625q0.7201538 0.921875 0.848053 2.8125l0.17538452 2.296875l0.671875 0q0.65625 0 0.8901367 -0.3125q0.24957275 -0.296875 0.24856567 -0.953125l-0.17803955 -4.015625l1.9842529 -0.078125q0.6285095 2.28125 0.63165283 4.328125q0.0031433105 2.0625 -0.8548584 2.9687347q-0.8423462 0.90625 -2.7173462 0.90625zm-2.8354797 -4.7968597q-0.095581055 -1.1875 -1.283081 -1.1875q-1.171875 0 -1.1702576 1.046875q0.0012512207 0.8125 0.26831055 1.765625l0.0786438 0.328125l2.28125 0l-0.17486572 -1.953125zm-4.5040894 7.539322l10.6719055 0l0.004333496 2.828125l-1.1406555 0q1.0652771 1.796875 1.395874 3.421875l-2.875 0q-0.37765503 -1.734375 -0.7545471 -2.96875l-0.15689087 -0.421875l-7.140625 0l-0.0043945312 -2.859375zm8.255585 13.840332l-0.0040283203 -2.625l-4.375 0q-0.640625 0 -0.90618896 0.03125q-0.26559448 0.03125 -0.4684143 0.234375q-0.1871643 0.203125 -0.18652344 0.625l0.049346924 1.625l-2.281067 0.125q-0.31466675 -1.421875 -0.31582642 -2.171875q-0.0029296875 -1.921875 0.8553772 -2.625q0.8583069 -0.70310974 3.186432 -0.70310974l4.4375 0l-0.001953125 -1.265625l2.4375 0l0.001953125 1.265625l2.953125 0l0.0043640137 2.8593597l-2.953125 0l0.0040283203 2.625l-2.4375 0zm-3.367279 5.0447235l-4.859375 0l-0.0045166016 -2.9375l14.5000305 0l0.008605957 5.625q0.007843018 5.1249847 -4.773407 5.1249847q-2.828125 0 -4.1751404 -2.140625l-5.543701 2.078125l-0.0049438477 -3.21875l4.8568115 -1.6874847l-0.0043640137 -2.84375zm2.519806 2.734375q0.0016174316 1.0468597 0.6430359 1.5624847q0.64141846 0.515625 1.6882935 0.515625q1.046875 0 1.6553955 -0.546875q0.624176 -0.546875 0.6225891 -1.5781097l-0.004119873 -2.6875l-4.609375 0l0.004180908 2.734375z" fill-rule="nonzero"/><path fill="#000000" fill-opacity="0.0" d="m49.634735 96.0153l0.22047424 143.9685l27.464561 0l-0.22046661 -143.9685z" fill-rule="evenodd"/><path fill="#8f250c" d="m68.02314 184.90028l0.0024642944 1.609375l-6.0000076 0l-0.0024375916 -1.59375l0.34375 0q-0.4856453 -0.828125 -0.4865303 -1.4062347q-0.0015068054 -0.984375 0.56020355 -1.5q-0.56420135 -1.109375 -0.5655861 -2.015625q-0.0018196106 -1.1875 0.6849632 -1.65625q0.68678284 -0.46875 2.2024078 -0.46875l3.2500076 0l0.0024642944 1.609375l-3.2031326 0q-0.765625 0 -1.1247368 0.171875q-0.3747368 0.171875 -0.37397003 0.671875q5.9890747E-4 0.390625 0.17330933 0.9375l0.06278992 0.1875q0.89052963 -0.0625 1.3592796 -0.0625l3.109375 0l0.0024642944 1.609375l-3.078125 0q-0.890625 0 -1.2497635 0.15625q-0.37475967 0.15625 -0.37394714 0.6875q7.171631E-4 0.46873474 0.17328644 0.92185974l0.047092438 0.140625l4.484379 0zm-4.144993 -13.052429l2.5000038 0q0.2812271 -0.015625 0.40610504 -0.09375q0.10925293 -0.078125 0.15579987 -0.296875l1.2031937 0.046875q9.3078613E-4 0.609375 -0.09223938 0.984375q-0.07757568 0.359375 -0.32700348 0.734375q0.4231949 0.859375 0.42458344 1.765625q0.0028457642 1.859375 -1.9659119 1.859375q-0.953125 0 -1.3601608 -0.515625q-0.40704346 -0.515625 -0.4711914 -1.59375l-0.095710754 -1.28125l-0.3750038 0q-0.375 0 -0.5153618 0.171875q-0.14036179 0.171875 -0.13981247 0.53125l0.097221375 2.265625l-1.1093063 0.046875q-0.34571075 -1.28125 -0.34748077 -2.4375q-0.0017738342 -1.15625 0.48181534 -1.671875q0.46796036 -0.515625 1.5304604 -0.515625zm1.582264 2.703125q0.06352997 0.671875 0.73540497 0.671875q0.65625 0 0.6553421 -0.59375q-6.942749E-4 -0.453125 -0.15775299 -0.984375l-0.047164917 -0.1875l-1.28125 0l0.09542084 1.09375zm2.537918 -5.8507843l0.0024642944 1.609375l-8.406258 0l-0.0024642944 -1.609375l4.7812576 0l-0.110313416 -0.609375l-2.2674446 -1.1875l-0.0027503967 -1.796875l2.8461456 1.5625l3.15374 -1.640625l0.0027770996 1.8125l-2.3419113 1.203125l0.11038208 0.65625l2.234375 0zm-0.006996155 -4.5706635l-6.0000076 0l-0.0024642944 -1.609375l6.0000076 0l0.0024642944 1.609375zm-6.7656326 0l-1.6406288 0l-0.0024642944 -1.609375l1.6406288 0l0.0024642944 1.609375zm6.758423 -4.7053986l0.0024642944 1.609375l-6.000004 0l-0.0024414062 -1.59375l0.34375 0q-0.4856186 -0.8125 -0.48667145 -1.4999847q-0.0018424988 -1.203125 0.7005882 -1.65625q0.70243454 -0.453125 2.1868134 -0.453125l3.25 0l0.0024642944 1.609375l-3.203125 0q-0.7656326 0 -1.1247177 0.1875q-0.3747368 0.171875 -0.37389755 0.71873474q7.4005127E-4 0.484375 0.17330933 0.9375l0.047088623 0.140625l4.484379 0zm0.7339783 -10.464157q1.03125 0 1.5168457 0.796875q0.5012207 0.796875 0.5033035 2.15625q0.0020599365 1.34375 -0.35619354 2.078125q-0.35827637 0.71875 -1.3114014 0.71875q-0.75 0 -1.4388428 -0.875q-0.29618073 0.453125 -0.9055557 0.453125q-0.234375 0 -0.7974243 -0.359375l-0.15641785 -0.109375q-0.5925064 0.8125 -1.7331314 0.8125q-1.1562538 0 -1.6729317 -0.6875q-0.51667786 -0.6875 -0.518425 -1.828125q-7.8964233E-4 -0.515625 0.123420715 -1.03125l0.030963898 -0.1875l-0.065467834 -1.9375l1.2968788 0l-0.076740265 0.90625q0.40584564 -0.265625 0.81209564 -0.265625q1.203125 0 1.6572113 0.625q0.4540558 0.609375 0.45603943 1.90625q4.348755E-4 0.28125 -0.04610443 0.5q0.31266785 0.109375 0.51579285 0.109375q0.203125 0 0.2809372 -0.203125q0.062187195 -0.203125 0.076667786 -0.953125q-0.002319336 -1.515625 0.38746643 -2.0625q0.38976288 -0.5625 1.4210129 -0.5625zm0.17823792 4.15625q0.515625 0 0.51368713 -1.265625q-0.0019378662 -1.265625 -0.59568787 -1.265625q-0.328125 0 -0.4215393 0.21875q-0.07778931 0.21875 -0.09236145 0.90625l-0.09210205 1.078125q0.32862854 0.328125 0.68800354 0.328125zm-4.906395 -0.09375q0.875 0 0.87361145 -0.90625q-0.001411438 -0.921875 -0.87641144 -0.921875q-0.890625 0 -0.88921356 0.921875q0.0013847351 0.90625 0.89201355 0.90625z" fill-rule="nonzero"/><path fill="#000000" fill-opacity="0.0" d="m272.66168 209.81615l-124.68826 72.02727l13.716537 23.75705l124.68825 -72.02728z" fill-rule="evenodd"/><path fill="#8f250c" d="m207.82965 261.398l1.39357 -0.8049927l3.000061 5.196106l-1.3800354 0.7971802l-0.17189026 -0.29766846q-0.50193787 0.8493347 -1.0566711 1.1697693q-1.0823822 0.62524414 -1.8049774 0.24868774q-0.70906067 -0.3843689 -1.5215759 -1.791626l-1.570343 -2.7198486l1.39357 -0.8050232l1.585968 2.7469177q0.44532776 0.77130127 0.7311554 0.9851074q0.2780304 0.20028687 0.75157166 -0.07324219q0.4600067 -0.26574707 0.77996826 -0.64904785l0.11186218 -0.1187439l-2.2422333 -3.8835754zm7.1591797 -2.4032898q-1.3790741 0.58010864 -1.893219 0.8771057q-0.51412964 0.29699707 -0.6082611 0.47769165q-0.09414673 0.18069458 0.023040771 0.383667q0.109375 0.1894226 0.35920715 0.15338135q0.2498169 -0.03604126 1.1610718 -0.36395264q0.9247894 -0.33572388 1.4797058 -0.18710327q0.56062317 0.1272583 1.0059357 0.8985596q0.9687805 1.6779175 -1.1283417 2.8893433q-0.6764984 0.3907776 -1.7735596 0.7718811l-0.35595703 0.13345337l-0.6313019 -1.1871643q1.3790894 -0.58010864 1.8796844 -0.8692932q0.5141449 -0.29699707 0.6353302 -0.49331665q0.11338806 -0.20983887 0.0040130615 -0.399292q-0.1171875 -0.20297241 -0.3612976 -0.18826294q-0.2441101 0.014678955 -1.134018 0.34832764q-0.87638855 0.32580566 -1.4484406 0.24121094q-0.57987976 -0.098083496 -1.0564423 -0.92352295q-0.47657776 -0.82540894 -0.16404724 -1.5653381q0.32606506 -0.7477417 1.2055054 -1.2557373q0.60884094 -0.3517151 1.7870789 -0.7797241l0.37730408 -0.12771606l0.63700867 1.165802zm3.433899 3.2132263l-3.000061 -5.196106l1.39357 -0.8050232l3.0000763 5.1961365l-1.3935852 0.8049927zm-3.3828888 -5.8591614l-0.82032776 -1.4208069l1.39357 -0.80500793l0.820343 1.4208069l-1.3935852 0.80500793zm7.4573364 3.5055237l-1.39357 0.8050232l-3.000061 -5.196121l1.3800354 -0.79719543l0.17189026 0.29768372q0.4613495 -0.82588196 1.0566711 -1.1697693q1.0417938 -0.60180664 1.7857361 -0.21954346q0.743927 0.38226318 1.4861298 1.6677704l1.6250458 2.8145447l-1.3935852 0.8050232l-1.601593 -2.7739563q-0.38282776 -0.6630554 -0.7248688 -0.88049316q-0.33633423 -0.23878479 -0.8098755 0.03475952q-0.4194336 0.24227905 -0.7258606 0.6177826l-0.09832764 0.1109314l2.2422333 3.8835602zm9.43605 -4.584671q0.515625 0.89308167 0.0677948 1.7111664q-0.4400177 0.831604 -1.6171112 1.5115662q-1.163559 0.67214966 -1.9791565 0.72824097q-0.802063 0.048309326 -1.2786407 -0.7771301q-0.375 -0.6495056 0.038909912 -1.6825562q-0.540802 -0.030456543 -0.84550476 -0.558197q-0.1171875 -0.20297241 -0.087249756 -0.8698578l0.016571045 -0.19003296q-1.0004272 -0.107788086 -1.570755 -1.095581q-0.57814026 -1.0013428 -0.24064636 -1.7917633q0.3374939 -0.7904358 1.32518 -1.3609772q0.44648743 -0.2579193 0.95547485 -0.4075775l0.17797852 -0.066726685l1.6464539 -1.0232544l0.64845276 1.1231079l-0.82380676 0.38565063q0.433136 0.21894836 0.63627625 0.57077026q0.60157776 1.0419312 0.28694153 1.7469788q-0.30108643 0.69721985 -1.4240723 1.3459167q-0.24353027 0.14068604 -0.45639038 0.20950317q0.061538696 0.3253479 0.16311646 0.5012512q0.1015625 0.17591858 0.31651306 0.14196777q0.20713806 -0.047470093 0.8643799 -0.40908813q1.3123932 -0.7581177 1.9812622 -0.69337463q0.6823883 0.056915283 1.1980286 0.94999695zm-3.5130005 2.2277985q0.2578125 0.44656372 1.3537292 -0.18652344q1.0959167 -0.63305664 0.79904175 -1.1472473q-0.16407776 -0.28416443 -0.4003601 -0.25593567q-0.2284851 0.041748047 -0.831604 0.3721161l-0.98043823 0.45809937q-0.12007141 0.4482727 0.059631348 0.75949097zm-2.3720093 -4.2957916q0.43751526 0.7577667 1.2222443 0.30445862q0.79826355 -0.4611206 0.3607483 -1.2188873q-0.4453125 -0.77130127 -1.243576 -0.31018066q-0.784729 0.4533081 -0.3394165 1.2246094z" fill-rule="nonzero"/><path fill="#000000" fill-opacity="0.0" d="m202.71182 267.83478l-23.457016 13.543304" fill-rule="evenodd"/><path stroke="#691e06" stroke-width="1.0" stroke-linejoin="round" stroke-linecap="butt" d="m202.71182 267.83478l-18.260895 10.543243" fill-rule="evenodd"/><path fill="#691e06" stroke="#691e06" stroke-width="1.0" stroke-linecap="butt" d="m183.62505 276.9476l-3.104187 3.699524l4.755951 -0.83865356z" fill-rule="evenodd"/><path fill="#000000" fill-opacity="0.0" d="m63.477253 143.61148l0 -27.055122" fill-rule="evenodd"/><path stroke="#691e06" stroke-width="1.0" stroke-linejoin="round" stroke-linecap="butt" d="m63.477253 143.61148l0 -21.055122" fill-rule="evenodd"/><path fill="#691e06" stroke="#691e06" stroke-width="1.0" stroke-linecap="butt" d="m65.12899 122.55636l-1.6517372 -4.5380936l-1.6517296 4.5380936z" fill-rule="evenodd"/><path fill="#000000" fill-opacity="0.0" d="m286.47238 100.49164l-124.81424 -71.809074l-13.732285 23.784315l124.814255 71.80907z" fill-rule="evenodd"/><path fill="#8f250c" d="m208.05708 69.51213l1.3814392 0.7947769l-1.6760101 4.371567l0.24378967 0.14025116l3.0355682 -3.4451523l1.4356079 0.825943l-1.4509888 4.356819l0.24378967 0.14025116l2.9490967 -3.639122l1.3678894 0.7869873l-3.9751892 4.6351013l-2.194046 -1.2622986l1.2400665 -3.5227585l-2.4183502 2.844864l-2.1940613 -1.2622986l2.0113983 -5.7649307zm5.4361877 10.049728l3.000061 -5.196121l1.394989 0.8025665l-3.0000763 5.196121l-1.3949738 -0.8025665zm3.3828888 -5.859169l0.82032776 -1.4208145l1.3949738 0.80257416l-0.82032776 1.4208069l-1.3949738 -0.8025665zm4.4844666 5.049652l-1.2730865 -0.73243713l-1.226593 2.1244507q-0.17970276 0.3112259 -0.24427795 0.45433807q-0.056777954 0.12957764 -0.016662598 0.2788391q0.05366516 0.15705872 0.25682068 0.2739334l0.8068695 0.4461975l-0.5864563 1.1407547q-0.7766571 -0.24854279 -1.142334 -0.45892334q-0.934494 -0.53764343 -1.0444336 -1.1597137q-0.09640503 -0.6142807 0.5598602 -1.7509308l1.242218 -2.1515198l-0.6094513 -0.35063934l0.68751526 -1.190773l0.6094513 0.35063934l0.835968 -1.4478836l1.3949738 0.80257416l-0.83595276 1.447876l1.2730865 0.73244476l-0.68751526 1.190773zm-0.002670288 5.3342896l-1.3949738 -0.8025665l4.2032166 -7.2799835l1.394989 0.80257416l-1.3437805 2.327423q0.92874146 0.04762268 1.4975739 0.37488556q1.0428467 0.5999756 1.0840302 1.4348679q0.04119873 0.83488464 -0.701004 2.1203842l-1.6250458 2.8145676l-1.3949738 -0.80257416l1.6094055 -2.7874985q0.37501526 -0.6495209 0.3921814 -1.054245q0.038528442 -0.41046906 -0.4355011 -0.6831894q-0.40629578 -0.23375702 -0.8693695 -0.33794403l-0.15887451 -0.037322998l-2.2578735 3.9106216z" fill-rule="nonzero"/><path fill="#000000" fill-opacity="0.0" d="m229.75528 83.73446l23.457016 13.543304" fill-rule="evenodd"/><path stroke="#691e06" stroke-width="1.0" stroke-linejoin="round" stroke-linecap="butt" d="m229.7553 83.73446l18.26088 10.543243" fill-rule="evenodd"/><path fill="#691e06" stroke="#691e06" stroke-width="1.0" stroke-linecap="butt" d="m247.19029 95.70813l4.755966 0.8386688l-3.1042023 -3.6995316z" fill-rule="evenodd"/></g></svg>